<svg width="780" height="768" viewBox="0 0 780 768" fill="none" xmlns="http://www.w3.org/2000/svg">
<path d="M489.709 406C481.873 607.251 316.248 768 113.077 768C50.6265 768 0 717.374 0 654.923V406H489.709ZM598.999 406C698.963 406 779.999 487.036 779.999 587C779.999 686.964 698.963 768 598.999 768H302.879C436.394 700.635 529.231 564.416 534.738 406H598.999ZM113.077 0C315.912 0.000123675 481.324 160.217 489.668 361H0V113.077C0 50.6265 50.6265 0 113.077 0ZM599.499 0C699.186 1.66472e-05 779.999 80.8126 779.999 180.5C779.999 280.187 699.186 361 599.499 361H534.703C528.841 203.011 436.113 67.2232 302.879 0H599.499Z" fill="black" style="fill:black;fill-opacity:1;"/>
</svg>
